<svg width="787.06663" height="428.12769" xmlns="http://www.w3.org/2000/svg">

 <g>
  <title>Layer 1</title>
  <path id="svg_2" fill="#fff" d="m72.70181,424.96191l-3.08276,-0.01721q-1.46826,-0.91803 -2.95041,-1.81445c-0.61166,-0.38605 -1.23044,-0.75775 -1.84955,-1.13672q-15.33839,-9.36786 -30.86861,-17.97137q-15.51607,-8.6106 -31.18819,-16.42786a1.292,1.292 0 0 1 -0.74272,-1.47717a0.37233,0.37233 0 0 1 0.05136,-0.10797c0.14574,-0.27356 0.47145,-0.38733 0.94681,-0.15363c1.28152,0.64258 2.57047,1.28522 3.8519,1.94226q15.7149,7.95099 31.29494,16.69568q15.56927,8.74084 30.96115,18.25342c0.21576,0.13116 0.43182,0.26959 0.64755,0.40076c0.97852,0.6048 1.95004,1.20953 2.92853,1.81427z"/>
  <path id="svg_3" fill="#fff" d="m112.45032,425.18402l-1.90628,-0.01062c-0.42999,-0.60168 -0.85248,-1.20337 -1.28244,-1.80511q-15.1525,-21.24829 -30.29861,-42.49658q-24.80353,-34.7868 -49.59222,-69.57349a1.22792,1.22792 0 0 1 -0.21449,-0.41998c-0.14133,-0.51349 0.23584,-0.81464 0.71927,-0.76135a1.44816,1.44816 0 0 1 1.00723,0.64105q13.90617,19.50842 27.80537,39.00232q24.67441,34.61273 49.3418,69.2182c1.04599,1.46448 2.09198,2.93604 3.138,4.40051c0.4299,0.60168 0.85983,1.20343 1.28238,1.80505z"/>
  <path id="svg_4" fill="#fff" d="m154.91891,414.11383c-0.09729,3.21265 -0.30991,6.37408 -0.58762,9.50629q-0.08063,0.8985 -0.16162,1.797l-2.00009,-0.01117c0.06119,-0.59894 0.12234,-1.19794 0.17612,-1.797c0.42261,-4.52502 0.7225,-9.1012 0.76321,-13.80157a192.53934,192.53934 0 0 0 -3.79047,-38.81036a241.64484,241.64484 0 0 0 -11.7395,-40.32062a276.90176,276.90176 0 0 0 -19.20755,-39.89301a1.0655,1.0655 0 0 1 -0.17657,-0.70856c0.08252,-0.57001 0.84149,-0.73901 1.40891,-0.19434a1.65516,1.65516 0 0 1 0.28671,0.36261q1.38394,2.3797 2.71738,4.77362a276.70901,276.70901 0 0 1 18.38391,40.03278a240.50137,240.50137 0 0 1 10.94446,40.3811a189.9529,189.9529 0 0 1 2.98273,38.68323z"/>
  <path id="svg_5" fill="#ccc" d="m713.39825,331.61035c0,-7.73199 -29.10156,-14 -65,-14s-65,6.26801 -65,14c0,4.95544 11.96436,9.30621 30,11.79431l0,76.70569a6.5,6.5 0 0 0 13,0l0,-75.32397c6.87207,0.53241 14.27686,0.82397 22,0.82397s15.12793,-0.29163 22,-0.82397l0,75.32397a6.5,6.5 0 0 0 13,0l0,-76.70569c18.03564,-2.4881 30,-6.83881 30,-11.79431z"/>
  <circle id="svg_6" fill="#2f2e41" r="28" cy="175.46783" cx="655.58561"/>
  <polygon id="svg_7" fill="#a0616a" points="585.905 415.034 573.645 415.034 567.813 367.746 585.907 367.746 585.905 415.034"/>
  <path id="svg_8" fill="#2f2e41" d="m564.88818,411.53061l23.64386,0l0,0l0,14.88687l0,0l-38.5307,0l0,0l0,0a14.88686,14.88686 0 0 1 14.88684,-14.88687z"/>
  <polygon id="svg_9" fill="#a0616a" points="566.768 408.192 555.07 404.521 563.662 357.656 580.926 363.073 566.768 408.192"/>
  <path id="svg_10" fill="#2f2e41" transform="rotate(17.4226 20.7225 -432.854)" d="m772.52338,202.60797l23.64386,0l0,0l0,14.88684l0,0l-38.53076,0l0,0l0,0a14.88686,14.88686 0 0 1 14.8869,-14.88684z"/>
  <path id="svg_11" fill="#2f2e41" d="m570.75604,389.32428a4.46207,4.46207 0 0 1 -1.57202,-0.28613l-9.01929,-3.38184a4.51574,4.51574 0 0 1 -2.81396,-5.18359c2.27075,-10.21002 10.00977,-44.9707 14.24731,-63.61523c5.02588,-22.11523 78.34277,-26.22461 81.46118,-26.38867l0.25635,-0.01367l8.24756,10.36426c2.98022,9.5791 2.03564,17.05078 -2.80762,22.20801c-14.13232,15.04688 -56.32739,5.70996 -61.35889,4.52832l-22.42725,58.87109a4.513,4.513 0 0 1 -4.21338,2.89746z"/>
  <path id="svg_12" fill="#2f2e41" d="m583.75604,396.32428a4.46207,4.46207 0 0 1 -1.57202,-0.28613l-9.01929,-3.38184a4.51574,4.51574 0 0 1 -2.81396,-5.18359c2.27075,-10.21002 10.00977,-44.9707 14.24731,-63.61523c5.02588,-22.11523 78.34277,-26.22461 81.46118,-26.38867l0.25635,-0.01367l8.24756,10.36426c2.98022,9.5791 2.03564,17.05078 -2.80762,22.20801c-14.13232,15.0459 -56.32715,5.70996 -61.35889,4.52832l-22.42725,58.87109a4.513,4.513 0 0 1 -4.21338,2.89746z"/>
  <path id="svg_13" fill="#a0616a" d="m557.66132,252.30429a10.52657,10.52657 0 0 1 0.88489,1.40152l49.32025,5.19623l7.09961,-9.73401l16.0907,8.79449l-13.94452,23.62134l-60.48737,-15.42252a10.49579,10.49579 0 1 1 1.03638,-13.85699l0.00006,-0.00006z"/>
  <path id="svg_14" fill="#dfe5ec" d="m672.27435,311.78619a4.50062,4.50062 0 0 1 -2.04956,-0.50098c-9.8623,-5.01465 -29.06641,-13.69922 -46.87451,-15.5166a4.39222,4.39222 0 0 1 -3.09546,-1.75a4.5186,4.5186 0 0 1 -0.83374,-3.51074c1.60693,-8.89551 5.29321,-31.54691 4.81836,-49.7012a24.59626,24.59626 0 0 1 18.58203,-24.46777l0,0a79.86638,79.86638 0 0 1 9.91284,-1.95404a24.79543,24.79543 0 0 1 27.55933,28.76172c-3.17578,18.81348 -6.3772,45.08987 -3.59473,63.43265a4.50689,4.50689 0 0 1 -1.8186,4.34863a4.42877,4.42877 0 0 1 -2.60596,0.85834z"/>
  <path id="svg_15" fill="#dfe5ec" d="m625.15228,263.93463a4.49612,4.49612 0 0 1 -1.78662,-0.37305l-12.8479,-5.56152a4.5057,4.5057 0 0 1 -2.34198,-5.91699l9.93164,-22.94238a11.49973,11.49973 0 1 1 21.10718,9.13574l-9.93146,22.94241a4.51063,4.51063 0 0 1 -4.13086,2.71582l0,-0.00003z"/>
  <circle id="svg_16" fill="#a0616a" r="24.56103" cy="182.01901" cx="654.56199"/>
  <path id="svg_17" fill="#2f2e41" d="m629.5589,169.95193a88.59047,88.59047 0 0 0 38.32617,12.62845l-4.03992,-4.84064a29.68836,29.68836 0 0 0 9.17078,1.82108c3.13019,-0.04877 6.40985,-1.254 8.1864,-3.83173a9.342,9.342 0 0 0 0.62531,-8.62973a17.69416,17.69416 0 0 0 -5.56635,-6.96014a33.1395,33.1395 0 0 0 -30.84448,-5.51248a19.80612,19.80612 0 0 0 -9.2124,5.90942c-2.32837,2.87238 -6.81097,5.43158 -5.61877,8.93167l-1.02673,0.4841z"/>
  <path id="svg_18" fill="#2f2e41" d="m658.69177,150.13107a75.48483,75.48483 0 0 0 -27.46301,-17.75919c-6.63873,-2.45944 -13.86456,-3.97897 -20.80505,-2.58228s-13.50415,6.19809 -15.44043,13.00778c-1.58331,5.56836 0.05157,11.56381 2.50873,16.80554s5.73755,10.10248 7.72461,15.53986a35.46793,35.46793 0 0 1 -35.68903,47.56226c6.8194,0.9144 13.10516,4.11908 19.77081,5.82486s14.53278,1.59009 19.48621,-3.18518c5.24091,-5.05246 5.34589,-13.26721 5.09247,-20.54251q-0.565,-16.22247 -1.13,-32.44501c-0.19208,-5.51541 -0.35614,-11.20761 1.63287,-16.3555s6.71619,-9.6557 12.23474,-9.60886c4.18256,0.03552 7.88446,2.56927 11.23871,5.06802s6.90442,5.16473 11.07056,5.53641s8.92291,-2.71146 8.61121,-6.88251"/>
  <path id="svg_19" fill="#a0616a" d="m613.26898,305.47705a11.00442,11.00442 0 1 1 4.24194,-21.16357l0.00024,0a10.56725,10.56725 0 0 1 1.31152,0.66455l44.74072,-20.08691l1.25684,-12.13428l19.28589,-0.51611l-0.12769,20.20166a10.88006,10.88006 0 0 1 -7.86108,10.34277l-52.32202,14.89307a10.25939,10.25939 0 0 1 -0.35913,1.01898a11.04529,11.04529 0 0 1 -10.16724,6.77979l0,0.00006z"/>
  <path id="svg_20" fill="#dfe5ec" d="m682.47272,262.14371a4.49622,4.49622 0 0 1 -1.7619,0.47641l-13.97357,0.85916a4.5057,4.5057 0 0 1 -4.76752,-4.21509l-1.53375,-24.9527a11.49972,11.49972 0 1 1 22.95599,-1.41235l1.534,24.95261a4.51061,4.51061 0 0 1 -2.45325,4.29199l0,-0.00003z"/>
  <path id="svg_21" fill="#3f3d56" transform="rotate(180 1431.67 844.936)" d="m2211.24219,1381.87231l79,0a3.5,3.5 0 0 1 3.5,3.5l0,0a3.5,3.5 0 0 1 -3.5,3.5l-79,0a3.5,3.5 0 0 1 -3.5,-3.5l0,0a3.5,3.5 0 0 1 3.5,-3.5z"/>
  <path id="svg_22" fill="#3f3d56" d="m538.60297,301.5l0,-49a6.50737,6.50737 0 0 1 6.5,-6.5l89,0a6.50737,6.50737 0 0 1 6.5,6.5l0,49a6.50736,6.50736 0 0 1 -6.5,6.5l-89,0a6.50736,6.50736 0 0 1 -6.5,-6.5z"/>
  <circle id="svg_23" fill="#fff" r="6" cy="277" cx="589.60296"/>
  <path id="svg_24" fill="#ffb8b8" d="m276.78076,219.33719a10.05575,10.05575 0 0 0 -15.32037,-1.74408l-31.75443,-16.39011l1.974,18.46448l29.8519,12.73352a10.11027,10.11027 0 0 0 15.24887,-13.06381l0.00003,0z"/>
  <path id="svg_25" fill="#ccc" d="m248.56046,226.76935a4.505,4.505 0 0 1 -3.66895,0.03915l-30.16217,-13.08408a46.37347,46.37347 0 0 1 -23.46201,-22.69757l-15.85693,-33.47116a14.49652,14.49652 0 1 1 22.90076,-17.78058l27.87271,51.71356l25.73682,19.44153a4.5147,4.5147 0 0 1 1.58661,4.9213l-2.52609,8.15924a4.50568,4.50568 0 0 1 -1.52371,2.21146a4.45458,4.45458 0 0 1 -0.89703,0.54715z"/>
  <circle id="svg_26" fill="#ffb8b8" r="24.56103" cy="93.63093" cx="174.71248"/>
  <polygon id="svg_27" fill="#ffb8b8" points="184.661 415.827 196.92 415.827 202.753 368.539 184.658 368.539 184.661 415.827"/>
  <path id="svg_28" fill="#2f2e41" transform="rotate(179.997 609.095 1075.45)" d="m997.59521,1723.71143l38.53076,0l0,0l0,14.88696l0,0l-23.64392,0a14.88686,14.88686 0 0 1 -14.88684,-14.88696l0,0l0,0z"/>
  <polygon id="svg_29" fill="#ffb8b8" points="144.661 415.827 156.92 415.827 162.753 368.539 144.658 368.539 144.661 415.827"/>
  <path id="svg_30" fill="#2f2e41" transform="rotate(179.997 529.095 1075.45)" d="m877.59521,1723.71326l38.5307,0l0,0l0,14.88696l0,0l-23.64386,0a14.88686,14.88686 0 0 1 -14.88684,-14.88696l0,0l0,0z"/>
  <path id="svg_31" fill="#2f2e41" d="m140.37985,402.29163a4.49854,4.49854 0 0 1 -1.07501,-3.55859l21.46463,-160.98535l53.32858,9.05664l5.69144,-3.41501l-14.7175,152.74411a4.51232,4.51232 0 0 1 -4.09619,3.96387l-16.14771,1.3457a4.49918,4.49918 0 0 1 -4.86646,-4.74219l4.18066,-72.74219a0.50006,0.50006 0 0 0 -0.98193,-0.16016l-20.68311,76.7002a4.50773,4.50773 0 0 1 -4.34473,3.3291l-14.367,0a4.49845,4.49845 0 0 1 -3.38568,-1.53613z"/>
  <path id="svg_32" fill="#ccc" d="m177.31223,249.01627a3.53283,3.53283 0 0 0 -4.51611,-0.18848l-10.66187,8.293a4.49611,4.49611 0 0 1 -7.0874,-2.30664c-5.22974,-18.31543 -17.07837,-64.418 -14.15942,-96.86621c1.65454,-18.39258 17.53711,-32.37109 35.405,-31.19824c12.21558,0.81445 20.25201,7.86133 23.88602,20.94434c8.92261,32.12207 18.72827,91.04395 20.60327,102.53027a4.48018,4.48018 0 0 1 -2.13647,4.58887a32.939,32.939 0 0 1 -16.69189,4.69724c-7.11914,0 -15.65527,-2.47858 -24.64111,-10.49414z"/>
  <path id="svg_33" fill="#ffb8b8" d="m181.33511,260.44284a10.05578,10.05578 0 0 0 -10.97879,-10.8269l-14.87186,-32.49319l-9.84152,15.74731l15.63138,28.44186a10.11027,10.11027 0 0 0 20.06082,-0.86908l-0.00003,0z"/>
  <path id="svg_34" fill="#ccc" d="m154.54294,248.87564a4.505,4.505 0 0 1 -2.91113,-2.2334l-15.65918,-28.90918a46.3735,46.3735 0 0 1 -4.45435,-32.33887l8.17847,-36.12302a14.49652,14.49652 0 1 1 28.99268,0.14163l-9.98145,57.89255l8.25366,31.18069a4.51469,4.51469 0 0 1 -1.78857,4.85156l-7.02295,4.86133a4.50565,4.50565 0 0 1 -2.56372,0.79977a4.455,4.455 0 0 1 -1.04346,-0.12308z"/>
  <polygon id="svg_35" opacity="0.2" points="166.697 173.828 157.697 211.828 170.697 243.828 161.697 212.828 166.697 173.828"/>
  <path id="svg_36" fill="#2f2e41" d="m160.69675,113.82776a16.53847,16.53847 0 0 1 -6.388,-1.15573c-0.8941,-0.34457 -1.82227,-0.62781 -2.71472,-0.9726c-7.88168,-3.04507 -13.07367,-11.43906 -13.25961,-19.88651s4.18866,-16.64645 10.68463,-22.0498s14.90985,-8.17746 23.33496,-8.819c9.07523,-0.69098 19.29422,1.61044 24.36536,9.16827c1.34982,2.01178 2.29388,4.45258 1.49399,6.88159a4.40341,4.40341 0 0 1 -1.24078,1.90594c-2.26471,2.01486 -4.52249,0.49988 -6.83118,0.366c-3.17322,-0.18402 -6.02338,2.38455 -7.04776,5.39352s-0.57346,6.32162 0.25366,9.39069a23.45956,23.45956 0 0 1 1.1825,5.71008a5.74054,5.74054 0 0 1 -2.37854,5.05472c-1.98288,1.19858 -4.58694,0.50491 -6.57101,-0.69174s-3.69839,-2.86047 -5.84152,-3.74106s-5.02246,-0.68524 -6.26987,1.2673a6.93473,6.93473 0 0 0 -0.79263,2.2886c-1.11829,5.09485 -0.86127,4.7948 -1.97955,9.88965l0.00009,0.00006z"/>
  <path id="svg_37" fill="#e6e6e6" d="m373.64819,197.17844a4.31989,4.31989 0 0 1 -0.80737,-3.70517a102.32847,102.32847 0 0 0 -0.00031,-47.52515a4.321,4.321 0 0 1 0.80768,-3.70517a4.2478,4.2478 0 0 1 3.35522,-1.62564l39.87225,0a4.30187,4.30187 0 0 1 4.23712,3.60571a167.48734,167.48734 0 0 1 0,50.97534a4.30187,4.30187 0 0 1 -4.23712,3.60571l-39.87219,0a4.2478,4.2478 0 0 1 -3.35529,-1.62564z"/>
  <path id="svg_38" fill="#e6e6e6" d="m311.96704,56.56052a4.31845,4.31845 0 0 1 -0.80707,-3.70456a102.33247,102.33247 0 0 0 0,-47.52515a4.31848,4.31848 0 0 1 0.80707,-3.70456a4.24662,4.24662 0 0 1 3.35529,-1.62625l39.8725,0a4.30258,4.30258 0 0 1 4.23712,3.60571a167.48727,167.48727 0 0 1 0,50.97534a4.30258,4.30258 0 0 1 -4.23712,3.60571l-39.8725,0a4.24659,4.24659 0 0 1 -3.35529,-1.62625z"/>
  <path id="svg_39" fill="#dfe5ec" d="m410.0788,103.59839a167.48663,167.48663 0 0 1 0,-50.97534a4.30156,4.30156 0 0 1 4.23682,-3.60571l39.8725,0a4.2466,4.2466 0 0 1 3.35522,1.62625a4.31916,4.31916 0 0 1 0.80743,3.70456a102.32847,102.32847 0 0 0 -0.00031,47.52515a4.318,4.318 0 0 1 -0.80713,3.70456a4.24657,4.24657 0 0 1 -3.35522,1.62625l-39.87256,0a4.30156,4.30156 0 0 1 -4.23676,-3.60571z"/>
  <path id="svg_40" fill="#ff6584" d="m243.15576,101.81851a167.50642,167.50642 0 0 1 0,-50.97534a4.30257,4.30257 0 0 1 4.23709,-3.60571l39.87253,0a4.24661,4.24661 0 0 1 3.35526,1.62625a4.31916,4.31916 0 0 1 0.8074,3.70456a102.32847,102.32847 0 0 0 -0.00031,47.52515a4.31805,4.31805 0 0 1 -0.8071,3.70456a4.24661,4.24661 0 0 1 -3.35526,1.62625l-39.87253,0a4.30257,4.30257 0 0 1 -4.23709,-3.60571z"/>
  <path id="svg_41" fill="#dfe5ec" d="m253.01767,219.49033a4.39086,4.39086 0 0 1 -0.82068,-3.76599a104.00128,104.00128 0 0 0 -0.00031,-48.30594a4.392,4.392 0 0 1 0.82101,-3.76599a4.31762,4.31762 0 0 1 3.41037,-1.65234l40.52725,0a4.37254,4.37254 0 0 1 4.3067,3.66495a170.23814,170.23814 0 0 1 0,51.81277a4.37254,4.37254 0 0 1 -4.3067,3.66495l-40.52725,0a4.31762,4.31762 0 0 1 -3.4104,-1.6524z"/>
  <path id="svg_43" fill="#fff" d="m289.1347,183.82178l-21.34937,0a3.00328,3.00328 0 0 1 -3,-3l0,-1.27393a3.00328,3.00328 0 0 1 3,-3l21.34937,0a3.00328,3.00328 0 0 1 3,3l0,1.27393a3.00328,3.00328 0 0 1 -3,3z"/>
  <path id="svg_44" fill="#fff" d="m289.1347,196.36914l-21.34937,0a3.00328,3.00328 0 0 1 -3,-3l0,-1.27393a3.00328,3.00328 0 0 1 3,-3l21.34937,0a3.00328,3.00328 0 0 1 3,3l0,1.27393a3.00328,3.00328 0 0 1 -3,3z"/>
  <path id="svg_45" fill="#fff" d="m274.99533,71.91406l-20.92361,0a3.00328,3.00328 0 0 1 -3,-3l0,-1.17188a3.00328,3.00328 0 0 1 3,-3l20.92361,0a3.00328,3.00328 0 0 1 3,3l0,1.17188a3.00328,3.00328 0 0 1 -3,3z"/>
  <path id="svg_46" fill="#fff" d="m408.67474,160.04346l-20.92334,0a3.00328,3.00328 0 0 1 -3,-3l0,-1.17236a3.00328,3.00328 0 0 1 3,-3l20.92334,0a3.00328,3.00328 0 0 1 3,3l0,1.17236a3.00328,3.00328 0 0 1 -3,3z"/>
  <path id="svg_47" fill="#fff" d="m408.67474,174.85693l-20.92334,0a3.00328,3.00328 0 0 1 -3,-3l0,-1.17236a3.00328,3.00328 0 0 1 3,-3l20.92334,0a3.00329,3.00329 0 0 1 3,3l0,1.17236a3.00329,3.00329 0 0 1 -3,3z"/>
  <path id="svg_48" fill="#fff" d="m408.67474,189.67041l-20.92334,0a3.00328,3.00328 0 0 1 -3,-3l0,-1.17236a3.00328,3.00328 0 0 1 3,-3l20.92334,0a3.00328,3.00328 0 0 1 3,3l0,1.17236a3.00328,3.00328 0 0 1 -3,3z"/>
  <path id="svg_49" fill="#fff" d="m274.99533,84.25879l-20.92361,0a3.00328,3.00328 0 0 1 -3,-3l0,-1.17236a3.00328,3.00328 0 0 1 3,-3l20.92361,0a3.00328,3.00328 0 0 1 3,3l0,1.17236a3.00328,3.00328 0 0 1 -3,3z"/>
  <path id="svg_50" fill="#fff" d="m347.1723,21.89502l-20.92334,0a3.00328,3.00328 0 0 1 -3,-3l0,-1.17236a3.00328,3.00328 0 0 1 3,-3l20.92334,0a3.00328,3.00328 0 0 1 3,3l0,1.17236a3.00328,3.00328 0 0 1 -3,3z"/>
  <path id="svg_51" fill="#fff" d="m442.64618,74.92871l-20.92358,0a3.00328,3.00328 0 0 1 -3,-3l0,-1.17236a3.00328,3.00328 0 0 1 3,-3l20.92358,0a3.00328,3.00328 0 0 1 3,3l0,1.17236a3.00328,3.00328 0 0 1 -3,3z"/>
 </g>
</svg>