<svg width="177" height="115" viewBox="0 0 177 115" fill="none" xmlns="http://www.w3.org/2000/svg">
<g clip-path="url(#clip0)">
<path d="M161.867 5.7049L11.1912 5.91431L11.3366 109.512L162.012 109.303L161.867 5.7049Z" fill="url(#paint0_linear)"/>
<g opacity="0.7">
<path opacity="0.7" d="M171.335 -0.00997997L5.51125 0.22048C2.46369 0.224716 -0.00339404 2.68724 0.000861156 5.72068L0.146457 109.513C0.150712 112.546 2.6247 115.002 5.67226 114.997L171.496 114.767C174.543 114.763 177.01 112.3 177.006 109.267L176.86 5.47488C176.856 2.44144 174.382 -0.0142154 171.335 -0.00997997Z" fill="url(#paint1_linear)"/>
</g>
<path d="M170.068 0.947472L7.0942 1.17397C4.04664 1.17821 1.57955 3.64073 1.58381 6.67417L1.72644 108.351C1.73069 111.384 4.20468 113.84 7.25224 113.836L170.226 113.609C173.274 113.605 175.741 111.142 175.736 108.109L175.594 6.43233C175.59 3.39889 173.116 0.943236 170.068 0.947472Z" fill="#535461"/>
<path d="M9.17809 61.9805C11.4027 61.9774 13.2036 60.1799 13.2005 57.9656C13.1974 55.7513 11.3915 53.9587 9.16685 53.9618C6.94222 53.9649 5.14133 55.7625 5.14443 57.9768C5.14754 60.1911 6.95347 61.9836 9.17809 61.9805Z" fill="#535461"/>
<g opacity="0.1">
<path opacity="0.1" d="M9.17804 61.9807C11.4027 61.9776 13.2036 60.1801 13.2005 57.9658C13.1974 55.7515 11.3915 53.9589 9.16685 53.962C6.94222 53.9651 5.14132 55.7627 5.14441 57.977C5.1475 60.1913 6.95342 61.9839 9.17804 61.9807Z" fill="black"/>
</g>
<path d="M168.659 41.9777C169.4 41.9767 170 41.3778 169.999 40.6401C169.998 39.9023 169.396 39.3051 168.655 39.3061C167.914 39.3071 167.314 39.906 167.315 40.6438C167.316 41.3815 167.918 41.9788 168.659 41.9777Z" fill="#535461"/>
<path d="M169.192 47.3241L168.407 47.3252C168.253 47.3254 168.129 47.4497 168.129 47.6028L168.153 64.4216C168.153 64.5747 168.278 64.6987 168.431 64.6985L169.216 64.6974C169.37 64.6971 169.495 64.5729 169.495 64.4197L169.471 47.6009C169.471 47.4478 169.346 47.3239 169.192 47.3241Z" fill="#535461"/>
<g opacity="0.1">
<path opacity="0.1" d="M169.192 47.3242L168.407 47.3253C168.253 47.3255 168.129 47.4498 168.129 47.6029L168.152 64.4217C168.153 64.5749 168.278 64.6988 168.431 64.6986L169.216 64.6975C169.37 64.6973 169.495 64.573 169.494 64.4199L169.471 47.6011C169.471 47.4479 169.346 47.324 169.192 47.3242Z" fill="black"/>
</g>
<g opacity="0.1">
<path opacity="0.1" d="M168.659 41.9777C169.4 41.9767 170 41.3778 169.999 40.64C169.998 39.9023 169.396 39.3051 168.655 39.3061C167.914 39.3071 167.314 39.906 167.315 40.6438C167.316 41.3815 167.917 41.9788 168.659 41.9777Z" fill="black"/>
</g>
<path d="M141.215 106.163H16.4336V9.61243H162.068V93.0105L161.984 106.024L141.215 106.163Z" fill="white"/>
<g opacity="0.7">
<path opacity="0.7" d="M162.068 43.0349H16.4336V44.3649H162.068V43.0349Z" fill="#E0E0E0"/>
</g>
<g opacity="0.7">
<path opacity="0.7" d="M162.068 35.8615H16.4336V37.1915H162.068V35.8615Z" fill="#E0E0E0"/>
</g>
<g opacity="0.7">
<path opacity="0.7" d="M162.068 28.688H16.4336V30.018H162.068V28.688Z" fill="#E0E0E0"/>
</g>
<g opacity="0.7">
<path opacity="0.7" d="M162.068 21.5145H16.4336V22.8445H162.068V21.5145Z" fill="#E0E0E0"/>
</g>
<g opacity="0.7">
<path opacity="0.7" d="M162.068 14.3411H16.4336V15.6711H162.068V14.3411Z" fill="#E0E0E0"/>
</g>
<g opacity="0.7">
<path opacity="0.7" d="M162.068 50.2102H16.4336V51.5402H162.068V50.2102Z" fill="#E0E0E0"/>
</g>
<g opacity="0.7">
<path opacity="0.7" d="M162.068 57.3876H16.4336V58.7176H162.068V57.3876Z" fill="#E0E0E0"/>
</g>
<g opacity="0.7">
<path opacity="0.7" d="M162.068 64.5648H16.4336V65.8948H162.068V64.5648Z" fill="#E0E0E0"/>
</g>
<g opacity="0.7">
<path opacity="0.7" d="M162.068 71.7422H16.4336V73.0722H162.068V71.7422Z" fill="#E0E0E0"/>
</g>
<g opacity="0.7">
<path opacity="0.7" d="M162.068 78.9175H16.4336V80.2475H162.068V78.9175Z" fill="#E0E0E0"/>
</g>
<g opacity="0.7">
<path opacity="0.7" d="M162.068 86.0948H16.4336V87.4248H162.068V86.0948Z" fill="#E0E0E0"/>
</g>
<g opacity="0.7">
<path opacity="0.7" d="M162.043 93.2722H16.4316V94.6022H162.043V93.2722Z" fill="#E0E0E0"/>
</g>
<g opacity="0.7">
<path opacity="0.7" d="M161.932 100.45H16.4336V101.78H161.932V100.45Z" fill="#E0E0E0"/>
</g>
<path d="M34.9317 15.6652H33.9228V106.163H34.9317V15.6652Z" fill="#E0E0E0"/>
<path d="M57.2145 15.6652H56.2056V106.163H57.2145V15.6652Z" fill="#E0E0E0"/>
<path d="M79.4973 15.6652H78.4883V106.163H79.4973V15.6652Z" fill="#E0E0E0"/>
<path d="M101.78 15.6652H100.771V106.163H101.78V15.6652Z" fill="#E0E0E0"/>
<path d="M124.063 15.6652H123.054V106.163H124.063V15.6652Z" fill="#E0E0E0"/>
<path d="M146.346 106.163H145.337V15.6652L146.346 15.6226V106.163Z" fill="#E0E0E0"/>
<path d="M19.6903 13.1467C20.4142 13.1467 21.0011 12.5625 21.0011 11.8419C21.0011 11.1213 20.4142 10.5371 19.6903 10.5371C18.9663 10.5371 18.3794 11.1213 18.3794 11.8419C18.3794 12.5625 18.9663 13.1467 19.6903 13.1467Z" fill="#FF5252"/>
<path d="M23.4437 13.1467C24.1676 13.1467 24.7545 12.5625 24.7545 11.8419C24.7545 11.1213 24.1676 10.5371 23.4437 10.5371C22.7197 10.5371 22.1328 11.1213 22.1328 11.8419C22.1328 12.5625 22.7197 13.1467 23.4437 13.1467Z" fill="#FFFF00"/>
<path d="M27.1971 13.1467C27.921 13.1467 28.5079 12.5625 28.5079 11.8419C28.5079 11.1213 27.921 10.5371 27.1971 10.5371C26.4731 10.5371 25.8862 11.1213 25.8862 11.8419C25.8862 12.5625 26.4731 13.1467 27.1971 13.1467Z" fill="#69F0AE"/>
<path d="M78.5663 65.8367H57.1405V71.653H78.5663V65.8367Z" fill="#DFE5EC"/>
<path d="M100.966 94.5305H79.5401V100.347H100.966V94.5305Z" fill="#DFE5EC"/>
<path d="M123.171 86.7754H101.745V92.5917H123.171V86.7754Z" fill="#DFE5EC"/>
<path d="M123.171 44.3164H101.745V50.1327H123.171V44.3164Z" fill="#DFE5EC"/>
<path d="M145.57 73.0101H124.145V78.8264H145.57V73.0101Z" fill="#DFE5EC"/>
<path d="M56.1666 22.796H34.7409V28.6123H56.1666V22.796Z" fill="#DFE5EC"/>
<path d="M100.966 37.3368H79.5401V43.1531H100.966V37.3368Z" fill="#DFE5EC"/>
<path d="M56.1666 51.4899H34.7409V57.3062H56.1666V51.4899Z" fill="#DFE5EC"/>
</g>
<defs>
<linearGradient id="paint0_linear" x1="11.2639" y1="57.7123" x2="161.939" y2="57.501" gradientUnits="userSpaceOnUse">
<stop stop-opacity="0.12"/>
<stop offset="0.55" stop-opacity="0.09"/>
<stop offset="1" stop-opacity="0.02"/>
</linearGradient>
<linearGradient id="paint1_linear" x1="88.4998" y1="115" x2="88.4998" y2="-1.06089e-05" gradientUnits="userSpaceOnUse">
<stop stop-color="#808080" stop-opacity="0.25"/>
<stop offset="0.54" stop-color="#808080" stop-opacity="0.12"/>
<stop offset="1" stop-color="#808080" stop-opacity="0.1"/>
</linearGradient>
<clipPath id="clip0">
<rect width="177" height="115" fill="white"/>
</clipPath>
</defs>
</svg>
