<svg width="635" height="271" xmlns="http://www.w3.org/2000/svg">

 <g>
  <title>Layer 1</title>
  <rect id="svg_21" fill="#f2f2f2" height="110.7733" width="144.99594" y="14.90943" x="464.85973"/>
  <rect id="svg_22" fill="#fff" height="99.76477" width="130.58641" y="20.41369" x="472.0645"/>
  <path id="svg_23" fill="#3f3d56" d="m539.651,94.41428q0.02594,0.00027 0.05188,-0.0011a34.81675,34.81675 0 0 0 0.77899,-69.48892a0.79424,0.79424 0 0 0 -0.60114,0.20837a0.78592,0.78592 0 0 0 -0.25677,0.57553l-0.76123,67.90198a0.79707,0.79707 0 0 0 0.78827,0.80414z"/>
  <path id="svg_24" fill="#e6e6e6" d="m512.34564,36.15242a1.02524,1.02524 0 0 1 0.7196,0.30736l23.37585,23.90588a1.01418,1.01418 0 0 1 0.29095,0.7251l-0.36426,32.49142a1.01059,1.01059 0 0 1 -0.3302,0.73987a1.026,1.026 0 0 1 -0.77124,0.26782a35.04446,35.04446 0 0 1 -23.69952,-58.09064a1.02636,1.02636 0 0 1 0.74091,-0.34657q0.01892,-0.00046 0.0379,-0.00024z"/>
  <path id="svg_25" fill="#dfe5ec" d="m536.11554,24.64671a1.02931,1.02931 0 0 1 0.69946,0.28584a1.01135,1.01135 0 0 1 0.31396,0.74786l-0.32867,29.3158a1.02077,1.02077 0 0 1 -1.75037,0.70221l-20.39832,-20.86084a1.02291,1.02291 0 0 1 0.05493,-1.48163a35.11806,35.11806 0 0 1 21.34564,-8.70801c0.02106,-0.00105 0.0423,-0.00143 0.06335,-0.00124z"/>
  <path id="svg_26" fill="#dfe5ec" d="m525.60718,108.4949a6.25343,6.25343 0 1 1 -6.18292,-6.32312a6.26054,6.26054 0 0 1 6.18292,6.32312z"/>
  <path id="svg_27" fill="#3f3d56" d="m543.47296,108.69519a6.25343,6.25343 0 1 1 -6.18292,-6.32312a6.26056,6.26056 0 0 1 6.18292,6.32312z"/>
  <path id="svg_28" fill="#e6e6e6" d="m561.33881,108.89551a6.25343,6.25343 0 1 1 -6.18292,-6.32315a6.26054,6.26054 0 0 1 6.18292,6.32315z"/>
  <rect id="svg_29" fill="#f2f2f2" height="110.7733" width="144.99594" y="143.11637" x="463.33346"/>
  <rect id="svg_30" fill="#fff" height="99.76477" width="130.58641" y="148.62063" x="470.53823"/>
  <circle id="svg_31" fill="#3f3d56" r="5.42203" cy="175.98812" cx="492.69473"/>
  <path id="svg_32" fill="#3f3d56" d="m579.81244,171.7688a3.67713,3.67713 0 1 1 0,7.35425l-57.02557,0a3.67712,3.67712 0 1 1 0,-7.35425l57.02557,0m0,-0.9006l-57.02557,0a4.57773,4.57773 0 1 0 0,9.15546l57.02557,0a4.57773,4.57773 0 1 0 0,-9.15546z"/>
  <path id="svg_33" fill="#dfe5ec" d="m557.31116,180.02365l-42.92828,0a4.57772,4.57772 0 1 1 0,-9.15543l42.92828,0a4.57772,4.57772 0 0 1 0,9.15543z"/>
  <circle id="svg_34" fill="#3f3d56" r="5.42203" cy="198.50302" cx="492.69473"/>
  <path id="svg_35" fill="#3f3d56" d="m579.81244,194.28372a3.67713,3.67713 0 1 1 0,7.35425l-57.02557,0a3.67712,3.67712 0 1 1 0,-7.35425l57.02557,0m0,-0.9006l-57.02557,0a4.57772,4.57772 0 1 0 0,9.15546l57.02557,0a4.57772,4.57772 0 1 0 0,-9.15546z"/>
  <path id="svg_36" fill="#dfe5ec" d="m573.52185,202.53851l-59.13898,0a4.57772,4.57772 0 1 1 0,-9.15543l59.13898,0a4.57772,4.57772 0 0 1 0,9.15543z"/>
  <circle id="svg_37" fill="#3f3d56" r="5.42203" cy="221.01792" cx="492.69473"/>
  <path id="svg_38" fill="#3f3d56" d="m579.81244,216.79861a3.67713,3.67713 0 1 1 0,7.35425l-57.02557,0a3.67712,3.67712 0 1 1 0,-7.35425l57.02557,0m0,-0.9006l-57.02557,0a4.57772,4.57772 0 1 0 0,9.15546l57.02557,0a4.57772,4.57772 0 1 0 0,-9.15546z"/>
  <path id="svg_39" fill="#dfe5ec" d="m538.39862,225.05344l-24.01575,0a4.57772,4.57772 0 1 1 0,-9.15543l24.01575,0a4.57772,4.57772 0 0 1 0,9.15543z"/>
  <rect id="svg_40" fill="#f2f2f2" height="207.61032" width="405.09331" y="34.50782" x="26.18842"/>
  <rect id="svg_41" fill="#fff" height="186.97824" width="378.08709" y="44.82386" x="39.69153"/>
  <path id="svg_42" fill="#3f3d56" d="m370.88788,203.27676l-275.61826,0a0.8626,0.8626 0 0 1 -0.86256,-0.86255l0,-132.10385a0.86256,0.86256 0 1 1 1.72513,0l0,131.24127l274.75569,0a0.86256,0.86256 0 0 1 0,1.72513z"/>
  <path id="svg_43" fill="#dfe5ec" d="m154.15726,193.7886l-25.06854,0a2.56336,2.56336 0 0 1 -2.56052,-2.5603l0,-34.55713a2.56337,2.56337 0 0 1 2.56052,-2.5603l25.06854,0a2.56337,2.56337 0 0 1 2.56052,2.5603l0,34.55713a2.56336,2.56336 0 0 1 -2.56052,2.5603z"/>
  <path id="svg_44" fill="#dfe5ec" d="m199.87289,193.7886l-25.06854,0a2.56336,2.56336 0 0 1 -2.56052,-2.5603l0,-67.33438a2.56336,2.56336 0 0 1 2.56052,-2.5603l25.06854,0a2.56336,2.56336 0 0 1 2.56052,2.5603l0,67.33438a2.56336,2.56336 0 0 1 -2.56052,2.5603z"/>
  <path id="svg_45" fill="#dfe5ec" d="m245.58853,193.7886l-25.06854,0a2.56337,2.56337 0 0 1 -2.56052,-2.5603l0,-34.55713a2.56337,2.56337 0 0 1 2.56052,-2.5603l25.06854,0a2.56337,2.56337 0 0 1 2.56052,2.5603l0,34.55713a2.56337,2.56337 0 0 1 -2.56052,2.5603z"/>
  <path id="svg_46" fill="#dfe5ec" d="m291.30417,193.7886l-25.06854,0a2.50734,2.50734 0 0 1 -2.56052,-2.44431l0,-80.50479a2.50734,2.50734 0 0 1 2.56052,-2.44431l25.06854,0a2.50734,2.50734 0 0 1 2.56052,2.44431l0,80.50476a2.50734,2.50734 0 0 1 -2.56052,2.44434z"/>
  <path id="svg_47" fill="#dfe5ec" d="m337.01981,193.7886l-25.06854,0a2.56336,2.56336 0 0 1 -2.56052,-2.5603l0,-103.56186a2.56336,2.56336 0 0 1 2.56052,-2.5603l25.06854,0a2.56336,2.56336 0 0 1 2.56052,2.5603l0,103.56186a2.56336,2.56336 0 0 1 -2.56052,2.5603z"/>
  <circle id="svg_48" fill="#3f3d56" r="5.17536" cy="138.58481" cx="141.62298"/>
  <circle id="svg_49" fill="#3f3d56" r="5.17536" cy="104.945" cx="187.33862"/>
  <circle id="svg_50" fill="#3f3d56" r="5.17536" cy="138.58481" cx="233.05426"/>
  <circle id="svg_51" fill="#3f3d56" r="5.17536" cy="88.55637" cx="278.7699"/>
  <circle id="svg_52" fill="#3f3d56" r="5.17536" cy="69.58007" cx="324.48555"/>
  <polygon id="svg_53" fill="#3f3d56" points="233.16299438476562,139.74400329589844 187.33900451660156,105.42100524902344 142.13999938964844,139.27499389648438 141.1060028076172,137.89500427246094 187.33900451660156,103.26499938964844 232.94500732421875,137.4250030517578 278.2659912109375,87.83000183105469 278.4469909667969,87.75599670410156 324.1629943847656,69.33700561523438 324.8080139160156,70.93699645996094 279.27398681640625,89.28300476074219 233.16299438476562,139.74400329589844 "/>
  <path id="svg_54" fill="#ccc" d="m941.54718,631.43909l-381,0a1,1 0 0 1 0,-2l381,0a1,1 0 0 1 0,2z"/>
 </g>
</svg>